<svg width="71.409668" height="40.348999" viewBox="0 0 71.4097 40.349" fill="none" xmlns="http://www.w3.org/2000/svg" xmlns:xlink="http://www.w3.org/1999/xlink">
	<desc>
			Created with Pixso.
	</desc>
	<defs/>
	<path id="XMLID 38" d="M9.86938 6.60742C9.27893 6.31659 5.6012 9.01453 5.29175 9.28308C3.93188 10.4616 2.08667 12.2217 3.65088 13.5658C5.24353 14.9349 7.84387 15.3941 9.79553 16.4725C11.8367 17.5995 10.0341 19.7005 9.08447 20.9305C6.69702 24.0236 4.62036 27.3213 2.84607 30.5535C2.37195 31.4161 -1.03748 40.2808 0.315186 40.349C-0.479614 40.3087 3.02209 32.6267 3.33862 32.1258C5.57983 28.593 8.70691 25.2745 11.9219 22.0158C13.2206 20.6996 14.5592 19.0104 14.1646 17.4451C13.76 15.8422 11.1469 15.0115 8.95813 14.2699C6.06812 13.2903 4.48413 12.7477 5.99866 10.7288C6.33081 10.2877 10.1547 6.74652 9.86938 6.60742Z" fill="#ED165F" fill-opacity="1.000000" fill-rule="nonzero"/>
	<path id="XMLID 37" d="M7.33569 2.47211C7.41663 2.43732 7.45923 2.27734 7.50464 2.1048C7.55005 1.93225 7.59839 1.75 7.69055 1.67065C7.94189 1.45502 8.16467 1.37292 8.39893 1.36456C8.63306 1.3562 8.88013 1.42023 9.17676 1.49536C9.49182 1.57465 9.75586 1.71661 10.027 1.85297C10.2981 1.98932 10.5778 2.12286 10.9226 2.18549C11.259 2.2467 11.5585 2.24536 11.8566 2.22864C12.1547 2.21332 12.4513 2.18274 12.7821 2.18408C13.2817 2.18689 13.8594 2.21753 14.3151 2.37891C14.7706 2.54028 15.1042 2.83392 15.1141 3.36542C15.1255 3.9693 14.7239 4.20026 14.2526 4.3714C13.7814 4.54254 13.2419 4.65106 12.9822 5.01007C12.9595 5.04065 13.5968 5.50262 14.2668 5.97571C14.9382 6.44879 15.6437 6.93439 15.7585 7.01093C16.3973 7.4325 17.0631 7.77618 17.777 8.04193C18.4896 8.30768 19.249 8.49554 20.0723 8.60547C20.8387 8.70703 21.4562 8.79608 22.2794 8.68335C22.728 8.62213 23.5513 8.5011 24.2737 8.0127C24.5959 7.79565 24.8585 7.52991 25.0601 7.32812C25.5455 6.84113 25.7428 6.50305 25.7911 6.52112C25.8479 6.5434 25.6434 7.05957 25.2729 7.56604C25.141 7.74554 24.8613 8.12817 24.41 8.45795C23.5853 9.05902 22.606 9.18011 21.7997 9.27887C20.6259 9.42358 19.6464 9.32898 19.0289 9.23712C17.8239 9.06042 16.64 8.84198 14.22 7.49091C12.7239 6.65607 11.2747 5.72107 9.68774 5.14642C9.03052 4.90851 7.04761 4.24341 5.35706 3.40021C3.6665 2.55701 2.26697 1.53571 2.77515 0.585388C3.35278 -0.495728 4.19312 0.103943 5.03906 0.91095C5.88367 1.71802 6.73535 2.72955 7.33569 2.47211Z" fill="#ED165F" fill-opacity="1.000000" fill-rule="nonzero"/>
	<path id="XMLID 33" d="M25.2474 17.4811C25.4745 17.4811 25.6619 17.5271 25.8066 17.6203C25.9514 17.7135 26.0636 17.8193 26.1388 17.9362C26.214 18.0544 26.2622 18.1782 26.2808 18.3077C26.2992 18.4384 26.302 18.547 26.2906 18.6332C26.2395 18.8684 26.126 19.1661 25.9486 19.5266C25.7711 19.8869 25.5653 20.2834 25.3312 20.7176C25.0969 21.1517 24.84 21.6136 24.5618 22.1034C24.2836 22.5932 24.0182 23.0746 23.764 23.5449C23.5115 24.0166 23.2828 24.4758 23.0813 24.921C22.8784 25.3677 22.7335 25.7642 22.6442 26.1121C22.569 26.3973 22.5774 26.5559 22.6725 26.5865C22.7677 26.6171 22.9408 26.5461 23.1949 26.3723C23.6377 26.087 24.1062 25.7113 24.5988 25.2466C25.0927 24.7819 25.5824 24.2852 26.0692 23.7578C26.556 23.2305 27.0245 22.6975 27.473 22.1577C27.9215 21.6178 28.3204 21.1281 28.6682 20.6884C29.016 20.2487 29.3041 19.8828 29.5312 19.5905C29.7583 19.2997 29.8917 19.1411 29.9301 19.1161C29.9812 19.0785 30.0536 19.0604 30.1487 19.0604C30.2438 19.0604 30.3318 19.0826 30.4141 19.1258C30.4965 19.1689 30.5588 19.2288 30.6042 19.3025C30.6483 19.3763 30.6454 19.4695 30.5944 19.5822C30.556 19.6559 30.4368 19.8521 30.2338 20.168C30.0309 20.4838 29.7598 20.8776 29.4176 21.3492C29.0756 21.8209 28.6781 22.3413 28.2225 22.9118C27.7668 23.4823 27.2758 24.0653 26.752 24.6608C26.2268 25.2563 25.6732 25.8365 25.0912 26.4001C24.5093 26.965 23.9202 27.47 23.3254 27.9167C23.2247 27.9793 23.0757 28.0753 22.8798 28.2047C22.684 28.3355 22.4525 28.4594 22.1871 28.5762C21.9216 28.6945 21.6364 28.7863 21.3326 28.8559C21.0288 28.9241 20.7322 28.9394 20.4412 28.9018C20.2126 28.8643 20.0325 28.778 19.9004 28.6416C19.767 28.5052 19.6761 28.3258 19.625 28.1017C19.574 27.8792 19.5612 27.6217 19.5867 27.3295C19.6123 27.0387 19.6633 26.7242 19.7386 26.3903C19.4604 26.6756 19.1183 26.9636 18.7137 27.2558C18.3092 27.548 17.8877 27.8082 17.4519 28.0378C17.0148 28.2673 16.5918 28.4594 16.1801 28.6152C15.7684 28.771 15.4178 28.8545 15.127 28.8657C14.6713 28.8782 14.2795 28.8156 13.9502 28.6792C13.6208 28.5428 13.3527 28.3605 13.1439 28.131C12.9353 27.9014 12.7834 27.644 12.6884 27.3588C12.5933 27.0735 12.5464 26.7883 12.5464 26.5031C12.5464 26.1065 12.6102 25.6501 12.7366 25.1353C12.8629 24.6205 13.0503 24.0875 13.2959 23.5352C13.5428 22.9842 13.8523 22.4373 14.2256 21.8975C14.5989 21.3576 15.0347 20.8553 15.5356 20.3906C16.0353 19.9258 16.5946 19.5223 17.2148 19.1815C17.8352 18.8406 18.525 18.6013 19.2844 18.4649C19.7528 18.3786 20.17 18.3536 20.5363 18.3911C20.9039 18.4287 21.2219 18.5122 21.4944 18.6416C21.767 18.7724 21.9912 18.9421 22.1687 19.1536C22.3461 19.3651 22.478 19.5878 22.5675 19.8229C22.7194 19.5377 22.8556 19.29 22.9763 19.0785C23.0969 18.8684 23.1949 18.707 23.2701 18.5943C23.4717 18.2478 23.6818 17.996 23.8961 17.8401C24.1105 17.6857 24.3105 17.58 24.4937 17.5243C24.6768 17.4686 24.8357 17.4464 24.9678 17.4589C25.1055 17.4742 25.1978 17.4811 25.2474 17.4811ZM16.6116 27.2864C16.8259 27.2739 17.1013 27.1904 17.4377 27.0359C17.7727 26.8815 18.1205 26.67 18.481 26.4028C18.8416 26.1357 19.1921 25.8254 19.5342 25.472C19.8763 25.1186 20.1672 24.7374 20.4071 24.3282C20.5973 23.8566 20.8018 23.3793 21.0245 22.8951C21.246 22.4109 21.4646 21.9462 21.679 21.4995C21.7556 21.1281 21.7612 20.8358 21.6974 20.6257C21.6335 20.4156 21.5427 20.2542 21.422 20.1415C21.3014 20.0302 21.1665 19.9592 21.0132 19.9272C20.8613 19.8967 20.7407 19.8813 20.6527 19.8813C20.4257 19.8688 20.1531 19.9648 19.8365 20.1694C19.52 20.3739 19.1851 20.6508 18.8302 20.9973C18.4753 21.3451 18.1218 21.7416 17.767 22.1883C17.4121 22.6349 17.09 23.0941 16.799 23.5644C16.5079 24.0361 16.261 24.498 16.0594 24.9502C15.8564 25.4024 15.733 25.8032 15.689 26.1496C15.645 26.4974 15.689 26.7758 15.8224 26.9872C15.9573 27.1987 16.2198 27.2989 16.6116 27.2864Z" fill="#ED165F" fill-opacity="1.000000" fill-rule="nonzero"/>
	<path id="XMLID 30" d="M34.0735 13.0342C34.275 13.0217 34.4497 13.0621 34.5958 13.1553C34.7406 13.2485 34.8513 13.3696 34.928 13.5185C35.0033 13.6674 35.0359 13.8315 35.0231 14.011C35.0104 14.1906 34.9592 14.3547 34.8712 14.5036C34.3276 15.3593 33.7385 16.343 33.1055 17.452C32.4724 18.5623 31.8336 19.7492 31.1892 21.0154C31.9103 21.1141 32.6541 21.1893 33.4192 21.238C34.1842 21.2881 34.8997 21.2811 35.564 21.2199C36.2281 21.1587 36.8074 21.0251 37.3013 20.8206C37.7953 20.616 38.1359 20.3085 38.3262 19.8995C38.4397 19.6643 38.5815 19.5085 38.7533 19.4348C38.9237 19.361 39.0784 19.3513 39.2189 19.4069C39.358 19.4626 39.463 19.5656 39.5326 19.7144C39.6022 19.8633 39.5994 20.0372 39.5227 20.2348C39.2942 20.7802 38.9663 21.2241 38.5361 21.565C38.1061 21.9059 37.6221 22.173 37.0841 22.3651C36.5461 22.5571 35.9698 22.6851 35.3567 22.7463C34.7435 22.8089 34.136 22.8298 33.5342 22.8117C32.9323 22.7936 32.3674 22.7504 31.8351 22.6809C31.3042 22.6127 30.8416 22.5417 30.4497 22.4666C30.3475 22.6781 30.251 22.8854 30.1559 23.09C30.0608 23.2945 29.9629 23.5018 29.8621 23.7133C29.9884 24.185 30.1248 24.7429 30.2709 25.3871C30.4156 26.0328 30.5334 26.7396 30.6215 27.5077C30.7095 28.2771 30.7606 29.0897 30.7733 29.9454C30.7861 30.8011 30.7294 31.6763 30.603 32.5682C30.4128 33.858 30.1602 34.9531 29.8436 35.8519C29.5271 36.7508 29.1793 37.4896 28.8004 38.0657C28.4214 38.6417 28.0282 39.0883 27.6237 39.4056C27.2191 39.7214 26.833 39.951 26.4655 40.0944C26.0978 40.2363 25.7671 40.317 25.469 40.3364C25.1724 40.3546 24.9409 40.3517 24.7764 40.3267C24.2695 40.2529 23.8268 40.0596 23.4478 39.7507C23.0687 39.4404 22.765 39.0438 22.5365 38.5596C22.3093 38.0754 22.1632 37.5244 22.0992 36.9038C22.0369 36.2833 22.0681 35.6265 22.1943 34.9322C22.3463 34.1266 22.5862 33.2305 22.9154 32.244C23.2448 31.2575 23.6337 30.2251 24.0823 29.1467C24.5322 28.067 25.0162 26.9734 25.5343 25.863C26.0524 24.7527 26.5775 23.6771 27.1099 22.6349C26.667 22.1508 26.2866 21.8975 25.9714 21.8725C25.7699 21.86 25.6805 21.7695 25.7061 21.6025C25.7316 21.4355 25.8196 21.2519 25.9714 21.0543C26.1233 20.8553 26.3036 20.6731 26.5123 20.5061C26.7209 20.3392 26.9012 20.2557 27.0531 20.2557C27.0786 20.2557 27.1951 20.2807 27.4037 20.3294C27.6123 20.3795 27.8806 20.4352 28.2098 20.4964C28.5889 19.7645 28.9536 19.08 29.3014 18.4413C29.6492 17.8026 29.9629 17.2349 30.2411 16.7382C30.5193 16.2429 30.7535 15.8268 30.9437 15.4915C31.1339 15.1562 31.2603 14.9335 31.3226 14.8222C31.4873 14.5245 31.696 14.267 31.9486 14.05C32.2013 13.8329 32.4639 13.6534 32.7365 13.5101C33.0089 13.3682 33.2644 13.2597 33.5044 13.1846C33.7443 13.1094 33.9344 13.0593 34.0735 13.0342ZM29.4988 32.1981C29.625 30.9695 29.6194 29.823 29.4802 28.7557C29.3412 27.6885 29.1254 26.7216 28.8345 25.8533C28.3405 26.933 27.8693 27.9988 27.4207 29.0535C26.9707 30.1082 26.5734 31.1128 26.2256 32.0673C25.8778 33.0218 25.5868 33.9067 25.3527 34.7194C25.1184 35.5319 24.9608 36.2388 24.8785 36.8398C24.7961 37.4409 24.8033 37.9182 24.897 38.2716C24.9921 38.625 25.1979 38.8198 25.5144 38.8574C26.21 38.9325 26.7792 38.7711 27.2219 38.3746C27.6648 37.978 28.0282 37.4465 28.3135 36.7842C28.5989 36.1205 28.8287 35.3831 29.0062 34.5704C29.1823 33.7579 29.3468 32.9662 29.4988 32.1981Z" fill="#ED165F" fill-opacity="1.000000" fill-rule="nonzero"/>
	<path id="XMLID 26" d="M46.9789 17.4811C47.2059 17.4811 47.3933 17.5271 47.5381 17.6203C47.6829 17.7135 47.795 17.8193 47.8702 17.9362C47.9454 18.0544 47.9938 18.1782 48.0122 18.3077C48.0306 18.4384 48.0334 18.547 48.0221 18.6332C47.9711 18.8684 47.8575 19.1661 47.6801 19.5266C47.5027 19.8869 47.2969 20.2834 47.0626 20.7176C46.8284 21.1517 46.5715 21.6136 46.2933 22.1034C46.0151 22.5932 45.7496 23.0746 45.4956 23.5449C45.2429 24.0166 45.0144 24.4758 44.8129 24.921C44.6099 25.3677 44.4651 25.7642 44.3756 26.1121C44.3004 26.3973 44.309 26.5559 44.4041 26.5865C44.4991 26.6171 44.6722 26.5461 44.9264 26.3723C45.3693 26.087 45.8376 25.7113 46.3302 25.2466C46.8241 24.7819 47.3138 24.2852 47.8007 23.7578C48.2876 23.2305 48.756 22.6975 49.2045 22.1577C49.6531 21.6178 50.0519 21.1281 50.3997 20.6884C50.7474 20.2487 51.0356 19.8828 51.2627 19.5905C51.4897 19.2997 51.6232 19.1411 51.6615 19.1161C51.7126 19.0785 51.785 19.0604 51.8801 19.0604C51.9752 19.0604 52.0632 19.0826 52.1456 19.1258C52.2279 19.1689 52.2904 19.2288 52.3358 19.3025C52.3798 19.3763 52.377 19.4695 52.3258 19.5822C52.2875 19.6559 52.1683 19.8521 51.9653 20.168C51.7623 20.4838 51.4912 20.8776 51.1492 21.3492C50.807 21.8209 50.4097 22.3413 49.954 22.9118C49.4983 23.4823 49.0072 24.0653 48.4834 24.6608C47.9583 25.2563 47.4047 25.8365 46.8228 26.4001C46.2407 26.965 45.6517 27.47 45.057 27.9167C44.9562 27.9793 44.8071 28.0753 44.6112 28.2047C44.4154 28.3355 44.184 28.4594 43.9186 28.5762C43.6532 28.6945 43.3678 28.7863 43.0641 28.8559C42.7604 28.9241 42.4636 28.9394 42.1727 28.9018C41.9442 28.8643 41.7639 28.778 41.6318 28.6416C41.4984 28.5052 41.4076 28.3258 41.3566 28.1017C41.3054 27.8792 41.2926 27.6217 41.3182 27.3295C41.3438 27.0387 41.3949 26.7242 41.4701 26.3903C41.1919 26.6756 40.8497 26.9636 40.4452 27.2558C40.0406 27.548 39.6191 27.8082 39.1833 28.0378C38.7462 28.2673 38.3232 28.4594 37.9116 28.6152C37.4999 28.771 37.1493 28.8545 36.8584 28.8657C36.4027 28.8782 36.011 28.8156 35.6816 28.6792C35.3523 28.5428 35.0841 28.3605 34.8754 28.131C34.6667 27.9014 34.5149 27.644 34.4198 27.3588C34.3247 27.0735 34.2778 26.7883 34.2778 26.5031C34.2778 26.1065 34.3417 25.6501 34.468 25.1353C34.5944 24.6205 34.7817 24.0875 35.0273 23.5352C35.2743 22.9842 35.5837 22.4373 35.957 21.8975C36.3303 21.3576 36.7661 20.8553 37.2671 20.3906C37.7667 19.9258 38.326 19.5223 38.9463 19.1815C39.5667 18.8406 40.2565 18.6013 41.0159 18.4649C41.4843 18.3786 41.9016 18.3536 42.2678 18.3911C42.6354 18.4287 42.9534 18.5122 43.226 18.6416C43.4984 18.7724 43.7227 18.9421 43.9001 19.1536C44.0775 19.3651 44.2096 19.5878 44.299 19.8229C44.4508 19.5377 44.5872 19.29 44.7078 19.0785C44.8285 18.8684 44.9264 18.707 45.0016 18.5943C45.2031 18.2478 45.4132 17.996 45.6276 17.8401C45.8419 17.6857 46.042 17.58 46.2251 17.5243C46.4082 17.4686 46.5673 17.4464 46.6992 17.4589C46.8369 17.4742 46.9292 17.4811 46.9789 17.4811ZM38.343 27.2864C38.5574 27.2739 38.8328 27.1904 39.1692 27.0359C39.5042 26.8815 39.8519 26.67 40.2124 26.4028C40.573 26.1357 40.9236 25.8254 41.2656 25.472C41.6078 25.1186 41.8987 24.7374 42.1387 24.3282C42.3289 23.8566 42.5332 23.3793 42.7561 22.8951C42.9775 22.4109 43.196 21.9462 43.4104 21.4995C43.4871 21.1281 43.4928 20.8358 43.4288 20.6257C43.365 20.4156 43.2742 20.2542 43.1536 20.1415C43.0328 20.0302 42.8981 19.9592 42.7448 19.9272C42.5929 19.8967 42.4722 19.8813 42.3842 19.8813C42.1571 19.8688 41.8845 19.9648 41.568 20.1694C41.2515 20.3739 40.9165 20.6508 40.5616 20.9973C40.2068 21.3451 39.8534 21.7416 39.4985 22.1883C39.1437 22.6349 38.8214 23.0941 38.5304 23.5644C38.2395 24.0361 37.9924 24.498 37.7909 24.9502C37.5879 25.4024 37.4645 25.8032 37.4204 26.1496C37.3765 26.4974 37.4204 26.7758 37.5538 26.9872C37.6887 27.1987 37.9513 27.2989 38.343 27.2864Z" fill="#ED165F" fill-opacity="1.000000" fill-rule="nonzero"/>
	<path id="XMLID 10" d="M51.8192 16.1232C52.0846 16.1107 52.3032 16.1663 52.4735 16.2902C52.6438 16.414 52.729 16.6185 52.729 16.9037C52.729 17.0401 52.6821 17.2321 52.587 17.4812C52.4919 17.7289 52.394 17.9779 52.2932 18.2256C52.1542 18.5109 52.0079 18.8141 51.8561 19.137C51.9441 19.2733 52.1655 19.3387 52.5204 19.3318C52.8738 19.3262 53.2798 19.2858 53.7354 19.2107C54.191 19.1356 54.6594 19.0563 55.1392 18.9686C55.6204 18.8823 56.0306 18.8267 56.3727 18.8016C56.6382 18.7891 56.8411 18.842 56.9802 18.9603C57.1194 19.0786 57.2145 19.2246 57.2655 19.3972C57.3167 19.5711 57.3252 19.7534 57.2939 19.9454C57.2627 20.1374 57.2017 20.296 57.1136 20.4199C57.0625 20.4936 56.9363 20.7079 56.7346 21.0613C56.5317 21.4147 56.3018 21.8433 56.042 22.3456C55.7822 22.8478 55.5225 23.3849 55.2642 23.9554C55.0044 24.5259 54.7986 25.056 54.6467 25.5458C54.4948 26.0356 54.4224 26.4543 54.4281 26.8022C54.4337 27.1501 54.5771 27.3421 54.8553 27.3796C55.0072 27.4047 55.267 27.2934 55.6332 27.0443C56.0009 26.7966 56.4266 26.4613 56.9149 26.0397C57.4019 25.6182 57.9171 25.1284 58.4622 24.5704C59.0057 24.0125 59.5353 23.442 60.0476 22.859C60.5601 22.276 61.0284 21.7 61.4514 21.1281C61.8759 20.5576 62.208 20.0428 62.4479 19.5836C62.5117 19.4598 62.6097 19.3763 62.7417 19.3318C62.8751 19.2886 63.0072 19.2858 63.1406 19.322C63.274 19.3582 63.3805 19.4403 63.4628 19.5641C63.5452 19.688 63.5679 19.8619 63.5295 20.0845C63.5167 20.1472 63.4131 20.335 63.2158 20.6522C63.0199 20.9681 62.7573 21.3618 62.428 21.8335C62.0988 22.3052 61.7069 22.8284 61.2513 23.4058C60.7957 23.9832 60.306 24.5621 59.7808 25.1451C59.2556 25.7281 58.702 26.286 58.12 26.8189C57.5381 27.3518 56.949 27.8082 56.3542 28.1866C55.7595 28.5651 55.1676 28.8434 54.58 29.0243C53.9908 29.2038 53.4246 29.2316 52.8809 29.1078C52.3613 28.9839 51.9668 28.7794 51.6942 28.4942C51.4218 28.2089 51.2485 27.868 51.1719 27.4715C51.0967 27.075 51.0967 26.6408 51.1719 26.1691C51.2471 25.6974 51.365 25.2272 51.5225 24.7555C51.6801 24.2838 51.8674 23.8218 52.0818 23.3696C52.2961 22.9174 52.5061 22.5111 52.7078 22.1508C52.9093 21.7917 53.0839 21.4968 53.2301 21.2672C53.3749 21.0377 53.4672 20.8985 53.5055 20.8484C53.6445 20.6745 53.6602 20.545 53.5522 20.4574C53.4445 20.3712 53.3025 20.3586 53.125 20.4199C52.9348 20.4936 52.6722 20.5562 52.3373 20.6063C52.0023 20.6564 51.6659 20.6369 51.3308 20.5507C50.9958 20.4644 50.7007 20.2779 50.448 19.9927C50.1953 19.7075 50.0619 19.2678 50.0491 18.6722C50.0364 18.4858 50.0647 18.2507 50.1343 17.9654C50.2039 17.6802 50.3146 17.4047 50.4664 17.1375C50.6183 16.8704 50.8042 16.638 51.0256 16.4404C51.2528 16.2415 51.5154 16.1357 51.8192 16.1232Z" fill="#ED165F" fill-opacity="1.000000" fill-rule="nonzero"/>
	<path id="XMLID 7" d="M64.0603 18.913C64.2888 18.9255 64.4775 18.9756 64.6294 19.0618C64.7814 19.1481 64.8949 19.2538 64.9716 19.3777C65.0468 19.5015 65.095 19.6281 65.1135 19.7589C65.132 19.8897 65.1362 19.9982 65.1234 20.0845C65.0482 20.4199 64.8579 20.8693 64.5542 21.4328C64.2505 21.9977 63.9155 22.5988 63.5479 23.2374C63.1802 23.8761 62.8296 24.5245 62.4946 25.1812C62.1597 25.8394 61.9226 26.4279 61.7834 26.9483C61.7068 27.2336 61.748 27.3824 61.907 27.395C62.0646 27.4075 62.2704 27.3323 62.5244 27.1724C62.9545 26.8871 63.4541 26.5059 64.0233 26.0286C64.5925 25.5513 65.1746 25.0366 65.7693 24.4841C66.364 23.9332 66.9487 23.3766 67.525 22.8186C68.1013 22.2607 68.6166 21.7487 69.0723 21.2839C69.5278 20.8192 69.9041 20.4352 70.2021 20.1304C70.4988 19.8271 70.6677 19.6629 70.7046 19.6379C70.7557 19.6003 70.8281 19.5822 70.9232 19.5822C71.0183 19.5822 71.1063 19.6045 71.1886 19.6476C71.271 19.6907 71.3334 19.7506 71.3788 19.8243C71.4229 19.8995 71.4199 19.9913 71.3689 20.104C71.3306 20.1777 71.173 20.3809 70.8948 20.7093C70.6166 21.0377 70.2561 21.4481 69.8132 21.9379C69.3704 22.4277 68.8579 22.9731 68.276 23.5756C67.694 24.1766 67.0864 24.7819 66.4534 25.39C65.8203 25.998 65.1746 26.5894 64.5173 27.1667C63.8586 27.7442 63.2328 28.2549 62.6379 28.7015C62.5499 28.7641 62.4038 28.8601 62.2008 28.9895C61.9978 29.1203 61.7678 29.2441 61.5082 29.361C61.2484 29.4793 60.9673 29.5753 60.6636 29.649C60.3599 29.7228 60.056 29.7422 59.7523 29.7047C59.2839 29.6421 58.9957 29.3916 58.8893 28.9506C58.7814 28.5109 58.7914 27.971 58.9177 27.3323C59.0439 26.6937 59.2555 25.9966 59.5536 25.2397C59.8502 24.4827 60.1639 23.7578 60.4933 23.0635C60.8225 22.3692 61.1348 21.7487 61.4329 21.2032C61.7296 20.6578 61.9481 20.2668 62.0873 20.0316C62.2903 19.6963 62.4989 19.4487 62.7133 19.2872C62.9276 19.1259 63.1277 19.0173 63.3108 18.9617C63.4939 18.906 63.6528 18.8837 63.7849 18.8962C63.9183 18.9074 64.0106 18.913 64.0603 18.913ZM64.3073 15.7878C64.4208 15.5638 64.557 15.3718 64.7146 15.2104C64.8722 15.049 65.0397 14.9252 65.217 14.8389C65.3945 14.7526 65.5776 14.7026 65.7678 14.6901C65.958 14.6775 66.134 14.7081 66.2987 14.7833C66.4634 14.8695 66.5996 14.9906 66.7075 15.1464C66.8153 15.3022 66.8877 15.4748 66.926 15.6668C66.9644 15.8588 66.9673 16.0675 66.936 16.2902C66.9048 16.5142 66.8309 16.7368 66.7174 16.9594C66.6039 17.1834 66.4677 17.3754 66.3101 17.5369C66.1511 17.6982 65.9835 17.8221 65.8076 17.9084C65.6301 17.9946 65.447 18.0447 65.2568 18.0573C65.0667 18.0698 64.8892 18.0391 64.726 17.964C64.3966 17.8026 64.1908 17.5118 64.1085 17.0888C64.0262 16.6686 64.0929 16.2345 64.3073 15.7878Z" fill="#ED165F" fill-opacity="1.000000" fill-rule="nonzero"/>
</svg>
